<?xml version="1.0" encoding="utf-8"?>
<svg viewBox="0 -9 1268 732.6" width="1268" height="732.6" xmlns="http://www.w3.org/2000/svg">
  <defs>
    <style>tspan{white-space:pre}.a{fill:none;stroke:#a4a8c7;stroke-linejoin:bevel;stroke-width:8}.b{fill:none;stroke:#000;stroke-width:5}.c{fill:none;stroke:#237c6f;stroke-width:5}.d{fill:none;stroke:#92581c;stroke-width:5}.e{fill:none;stroke:#459b2c;stroke-width:5}.f{fill:none;stroke:#fff;stroke-width:4;stroke-dasharray:4,4}.g{fill:#a42720;stroke:#080a12;stroke-linecap:round;stroke-linejoin:round;stroke-width:3}.h{font-size: 10px;fill: #000000;font-family: "Arial"}.i{font-size: 12px;fill: #000000;font-family: "Arial"}</style>
  </defs>
  <path fill-rule="evenodd" class="a" d="m123.3 449.1l-6.6-11.3-8.9-4.8 9.5-16.1 13.1 5.4v-14.9l4.8-16.7 10.7-5.4-2.4-11.3-4.7-6.5-1.2-10.1 10.7-12.6 1.8-7.1 5.9-1.2 10.8-11.9 18.4-3 11.9 6.6-1.2-19.7 47.1-3 3-19 10.1-0.6-1.2-9.5 15.5-13.7 6-1.2 4.7-16.7 16.1-3.6 4.2-16.1 30.3-3.5 13.1 31.5 3 39.9-6.5 11.3-19.1-1.1-14.9-13.7-5.3-22.7-7.2 12.5 3.6 9-16.7 20.2 1.8 16.1 6 0.6 2.9-6-0.6-6.5 10.8-1.8 3.5 11.9 2.4 7.8 12.5-14.3h23.3l6.5 9.5 9.5-8.4v-5.9l14.3-19.1 8.4 8.4v10.7c0 0-9-1.8-11.4-1.2-2.3 0.6-3.5 11.3-3.5 11.3l8.9 7.8 10.1-6.6 45.9-0.6-4.8 10.1 27.4 3.6 7.2 12.5 8.3-5.9 4.8-11.4 10.1 2.4 29.8 34.6 7.1-5.4-5.9-22.6 6.5-15.5 11.3-11.3 7.2-20.9 15.5 9-7.8 22-6.5 45.3v9.5l-11.9 14.9-13.1 5.3c0 0-11.9-2.9-11.4 0 0.6 3 20.9 10.8 20.9 10.8l19.1-10.2 7.7-12.5v-12.5l11.3 1.2v-10.1l-13.7-1.8-0.6-11.3 9.5-10.7-1.7-20.3 10.1-8.9 0.6 16.7 11.9 7.1-4.8-13.7 11.9-6.5 19.1 11.3 4.8-9-10.8-10.1 2.4-13.7 33.4-4.1 1.8-20.3 30.3-17.9 20.9-8.3 6.5-7.2 5.4-0.5-1.8-8.4 10.7-13.1 8.4 8.3 7.1 9.6 18.5-7.8 17.8 24.5-27.9 49.4 24.4-16.1-1.2-7.7h5.3l9 5.9 10.7-9.5 16.1-1.2 3.5 4.2 20.3-5.4-1.2-14.3 26.2-6.5 16.1 21.4 20.2 10.1-7.1-22 10.7 2.4 10.1-7.8 14.3-4.1-0.6-13.7-8.9-14.3 3-7.8 39.9-20.8 14.3 5.9 15.5-5.9 19.6-32.8 32.8 9v-12.5l11.9-22.7 1.8-11.9 17.3 4.8 0.5-10.2-11.9-7.1 9.6-26.8 54.2-43.5h22l-7.7-9.5 4.1-12.5 21.5-8.9 5.3 19 14.3 6 1.2 6.5-16.7 12.5-14.9 5.4 1.2 9.5-10.7 2.4 5.4 7.1 6.5 1.8 8.4 15.5-1.2 6 10.1-2.4h25.6l0.6 7.1-8.3 4.8 16.6 67.3 7.8 6.6-11.9 4.7-4.8 23.8c0 0-4.2 5.4-4.2 7.8 0 2.4 0.6 10.7 0.6 10.7l-1.2 13.1 19.7 24.4 7.1-7.1 22.1 13.7c0 0-0.6 6.5-0.6 8.9 0 2.4 13.7 11.3 13.7 11.3l4.8 26.8 12.5 7.2-5.4 8.9 11.3 16.7 1.2 16.1-30.4-11.9-48.8-30.4-8.9-21.5-1.2-10.7-10.2-33.3c0 0 1.8-12.5 0-14.9-1.7-2.4-6.5-10.1-6.5-10.1v-10.2l-19.1-23.2-5.3 10.1 11.9 14.3 3.6 22.1-9 1.1c0 0-6.5-9.5-8.9-7.1-2.4 2.4-11.9 23.2-11.9 23.2l11.9 35.2 7.7 4.1-12.5 26.8-4.1-5.3-11.4 1.8-6.5 8.3-0.6 8.9-29.2 30.4-4.8 16.1-0.6 65.5-5.3 28.6 15.5-3.6 8.3 9.6 7.2-7.8h6.5l-0.6-11.9 8.4-6.6 18.4 3 16.7 19.1 8.9 18.4 16.1 17.9 10.1 20.9-2.3 20.2 7.7 23.2-2.4 47.7-10.1 29.2-22.6 9.5-6.6 15.5-4.2-1.2 1.8-16.1-14.3-21.4 6.6-13.1 8.9-2.4-3.6-34-11.3-18.4-7.1 4.1-9.6 17.3-16 5.4-14.3-11.3-31.6 3.5c0 0-38.7-36.9-43.5-36.9-4.7 0-19 4.8-19 4.8l-10.8-1.2-19 11.3-3 17.3h7.8l5.3 8.9-7.1 8.9 2.9 26.2-7.1 4.8-4.8 8.3-23.2 0.6-17.9 3-11.3 16.1-21.4 13.1-28 3-14.3-9-16.7-1.1-20.2 7.7-14.3-4.8-9-10.7-29.1-7.1-12 15.4 7.8 15.5-0.6 6-10.7 3-28.6-0.6-10.1-8.4-14.9-0.6-31.6 12.5-19.7 14.3-8.3-1.2-7.1-9.5-10.2-0.6c0 0-16-22-20.2-22-4.2 0-19.7 1.2-19.7 1.2l-7.1-10.1-10.7 1.1-15.5-41.6-10.1-12c0 0 4.1-9.5 0.5-9.5-3.5 0-32.7 9.5-32.7 9.5 0 0 1.2-10.7-1.2-11.3-2.4-0.6-17.9-10.1-17.9-10.1l-2.9-18.5c0 0-7.2-3.5-10.8-4.1-3.5-0.6-25.6 4.1-25.6 4.1l-36.3-2.3-20.9-5.4-4.7 7.7 7.1 11.9-17.2 1.2-7.8 12 5.4 12.5-4.2 6.5-23.2-8.9-7.8-11.3-13.1-6.6-10.7 3c0 0-8.9-8.4-11.3-9.5-2.4-1.2-5.4 0.6-6-1.8-0.6-2.4-1.7-16.7-1.7-16.7l-19.1-17.3-30.4 3-4.7 11.9-7.8-4.2-0.6-10.7-28.6 20.9 11.9 27.4-6.5 13.1v8.3l-21.5 1.8-17.8 8.3-1.2 14.9-10.1 15.5v18.5l-16.1 4.7-10.7-29.7 1.2-14.3-13.2-9-17.2-31.5-15.5-8.4-2.4-23.2-6.5-22 13.7 1.1 13.1-4.7 1.2-7.8 20.8 1.8-8.3-10.7 23.2 0.6 15.5-16.7-10.2-22-2.9-10.1-11.9-11.4 5.9-14.8-5.9-8.4z" style="stroke-width: 3px; stroke: rgb(198, 0, 0);"/>
  <path class="b" d="m272.5 494l112 39.2 31.6 34.5" style="paint-order: fill; stroke-width: 3px;"/>
  <path class="b" d="M 977.4 533.6 L 963.7 513.4 L 954.1 489" style="paint-order: fill; stroke-width: 3px;"/>
  <path class="b" d="M 1154.177 671.596 L 1152.672 623.48 L 1137.965 575.448 L 1083.6 553.4" style="paint-order: fill; stroke-width: 3px;"/>
  <path class="b" d="M 761.063 591.16 C 759.763 589.46 769 557.2 769 557.2" style="paint-order: fill; stroke-width: 3px;"/>
  <path class="b" d="M 236.341 416.93 L 321.3 408.5 L 387.5 403.5 L 422.4 387.9 L 477.6 376.1 L 482.6 371.9 L 483.1 371.9" style="paint-order: fill; stroke-width: 3px;"/>
  <path class="b" d="M 569 424.5 L 561.8 441.8 L 520.1 496.1 L 459.9 535.3 L 433.4 544.5" style="paint-order: fill; stroke-width: 3px;"/>
  <path class="c" d="m416.1 567.7l37.5 24.8 42.5 10.2" style="stroke: rgb(0, 0, 0); paint-order: fill; stroke-width: 3px;"/>
  <path class="b" d="M 172.2 488.1 L 177.7 513.4 L 172.2 559.7 L 171.4 568.5 L 178.6 589.2 L 182.8 623.3" style="paint-order: fill; stroke-width: 3px;"/>
  <path class="b" d="M 194.624 425.972 C 191.624 425.972 171.126 489.482 171.126 489.482 L 142.8 523.1 L 127.6 545.8 L 84.871 572.224" style="paint-order: fill; stroke-width: 3px;"/>
  <path class="b" d="m194.6 427.9l43.3 42.5 23.6 20.7 11 2.9h1.7" style="paint-order: fill; stroke-width: 3px;"/>
  <path class="b" d="M 212.7 344.5 C 212.7 352.1 235.739 416.931 235.739 416.931" style="paint-order: fill; stroke-width: 3px;"/>
  <path class="b" d="m236.3 416.5l15.1-18.1 20.7-22.3 29-33.7 17.3-8.9" style="paint-order: fill; stroke-width: 3px;"/>
  <path class="b" d="m197.9 335.2c2.6 1.7 14.4 10.1 14.4 10.1l25.6-2.5 25.3-29.9 23.2-18.5 8.8-34.6 35-21" style="paint-order: fill; stroke-width: 3px;"/>
  <path class="b" d="M 198.8 336.5 L 192.9 427" style="paint-order: fill; stroke-width: 3px;"/>
  <path class="b" d="M 272.882 493.948 L 355.698 493.313" style="paint-order: fill; stroke-width: 3px;"/>
  <path class="b" d="M 84.079 572.404 L 173.5 568.1" style="paint-order: fill; stroke-width: 3px;"/>
  <path class="b" d="M 300.7 585.8 L 331.9 609.4" style="paint-order: fill; stroke-width: 3px;"/>
  <path class="b" d="M 193.351 427.081 L 214.565 541.51 L 299.632 583.148" style="paint-order: fill; stroke-width: 3px;"/>
  <path class="b" d="m301.1 341.5l-16.9-10.6-7.7-7.4 1.7-11.7 1.8-11" style="paint-order: fill; stroke-width: 3px;"/>
  <path class="d" d="M 729.4 601.8 L 761 591.3 L 802.7 571.1 L 828 583.3 L 844.4 578.2 L 897.5 552.5 L 932 521 L 964 537 L 983 532.3 L 1019.2 525.2 L 1028 532.7 L 1084.345 553.367" style="stroke: rgb(0, 0, 0); paint-order: fill; stroke-width: 3px;"/>
  <path class="e" d="M 194.1 425.8 L 218.6 419.5 L 237.1 415.2 L 266.6 430.4 L 307 457.4 L 356.3 494 L 384.5 533.2 L 431.7 545 L 493.2 601 L 585.8 617.4 L 662.9 595.9 L 683.9 602.2 L 702.5 598 L 729.4 600.1 L 746.3 619.5 L 766.5 622 L 802.3 652.8 L 799.8 665 L 808.2 666.2 L 827.1 651.9 L 838.5 651.5 L 854.5 656.6 L 878.5 643.9 L 898.7 629.6 L 908.8 634.7 L 932 616.6 L 928.2 597.6 L 942.5 579.1 L 978.3 533.267" style="stroke: rgb(0, 0, 0); paint-order: fill; stroke-width: 3px;"/>
  <path class="f" d="m272.5 494l112 39.2 31.6 34.5" style="paint-order: fill; stroke-width: 3px;"/>
  <path class="f" d="M 237.441 416.746 L 321.3 408.5 L 387.5 403.5 L 422.4 387.9 L 477.6 376.1 L 482.6 371.9 L 483.1 371.9" style="paint-order: fill; stroke-width: 3px;"/>
  <path class="f" d="M 172.2 488.1 L 177.7 513.4 L 172.2 559.7 L 171.4 568.5 L 178.6 589.2 L 182.8 623.3" style="paint-order: fill; stroke-width: 3px;"/>
  <path class="f" d="M 194.624 425.972 C 191.624 425.972 171.125 489.849 171.125 489.849 L 142.8 523.1 L 127.6 545.8 L 84.87 572.224" style="paint-order: fill; stroke-width: 3px;"/>
  <path class="f" d="M 212.7 344.5 C 212.7 352.1 235.739 417.298 235.739 417.298" style="paint-order: fill; stroke-width: 3px;"/>
  <path class="f" d="m236.3 416.5l15.1-18.1 20.7-22.3 29-33.7 17.3-8.9" style="paint-order: fill; stroke-width: 3px;"/>
  <path class="f" d="m197.9 335.2c2.6 1.7 14.4 10.1 14.4 10.1l25.6-2.5 25.3-29.9 23.2-18.5 8.8-34.6 35-21" style="paint-order: fill; stroke-width: 3px;"/>
  <path class="f" d="M 198.8 336.5 L 192.9 427" style="paint-order: fill; stroke-width: 3px;"/>
  <path class="f" d="M 193.535 427.448 L 214.61 541.465 L 299.265 582.597" style="paint-order: fill; stroke-width: 3px;"/>
  <path class="f" d="M 84.079 572.404 L 173.5 568.1" style="paint-order: fill; stroke-width: 3px;"/>
  <path class="f" d="M 300.7 585.8 L 331.9 609.4" style="paint-order: fill; stroke-width: 3px;"/>
  <path class="f" d="m194.6 427.9l43.3 42.5 23.6 20.7 11 2.9h1.7" style="paint-order: fill; stroke-width: 3px;"/>
  <path class="f" d="M 761.246 590.426 C 759.946 588.726 769 557.2 769 557.2" style="paint-order: fill; stroke-width: 3px;"/>
  <path class="f" d="M 569 424.5 L 561.8 441.8 L 520.1 496.1 L 459.9 535.3 L 433.4 544.5" style="paint-order: fill; stroke-width: 3px;"/>
  <path class="f" d="m300.8 342.6l-24.7-18.4 2.9-15.2 1-8.2" style="paint-order: fill; stroke-width: 3px;"/>
  <path class="f" d="M 977.4 533.6 L 963.7 513.4 L 954.1 489" style="paint-order: fill; stroke-width: 3px;"/>
  <path class="f" d="M 1154.543 671.964 L 1153.219 625.146 L 1137.946 575.507 L 1083.6 553.4" style="paint-order: fill; stroke-width: 3px;"/>
  <path class="f" d="M 729.4 601.8 L 761 591.3 L 802.7 571.1 L 828 583.3 L 844.4 578.2 L 897.5 552.5 L 932 521 L 964 537 L 983 532.3 L 1019.2 525.2 L 1028 532.7 L 1084.161 553.183" style="paint-order: fill; stroke-width: 3px;"/>
  <path class="f" d="M 194.1 425.8 L 218.6 419.5 L 237.1 415.2 L 266.6 430.4 L 307 457.4 L 356.3 494 L 384.5 533.2 L 431.7 545 L 493.2 601 L 585.8 617.4 L 662.9 595.9 L 683.9 602.2 L 702.5 598 L 729.4 600.1 L 746.3 619.5 L 766.5 622 L 802.3 652.8 L 799.8 665 L 808.2 666.2 L 827.1 651.9 L 838.5 651.5 L 854.5 656.6 L 878.5 643.9 L 898.7 629.6 L 908.8 634.7 L 932 616.6 L 928.2 597.6 L 942.5 579.1 L 978.3 533.267" style="fill-rule: nonzero; paint-order: fill; stroke-width: 3px;"/>
  <path class="f" d="m416.1 567.7l37.5 24.8 40.4 9.3" style="paint-order: fill; stroke-width: 3px;"/>
  <path class="f" d="M 270.4 541.6 L 270 541.6" style="paint-order: fill; stroke-width: 3px;"/>
  <path class="f" d="M 273.066 493.763 L 356.433 493.312"/>
  <path class="g" d="M 171.025 495.864 C 167.625 495.864 164.925 493.164 164.925 489.864 C 164.925 486.464 167.625 483.764 171.025 483.764 C 174.325 483.764 177.025 486.464 177.025 489.864 C 177.025 493.164 174.325 495.864 171.025 495.864 Z" style="stroke-width: 2px; stroke: rgb(229, 229, 229); paint-order: stroke; fill-rule: nonzero; fill: rgb(255, 20, 30);"/>
  <path class="g" d="m193.9 432.3c-3.4 0-6.1-2.7-6.1-6.1 0-3.3 2.7-6 6.1-6 3.3 0 6 2.7 6 6 0 3.4-2.7 6.1-6 6.1z" style="stroke-width: 2px; stroke: rgb(229, 229, 229); paint-order: stroke; fill-rule: nonzero; fill: rgb(255, 20, 30);"/>
  <path class="g" d="m236.8 423c-3.3 0-6-2.7-6-6 0-3.4 2.7-6.1 6-6.1 3.4 0 6.1 2.7 6.1 6.1 0 3.3-2.7 6-6.1 6z" style="stroke-width: 2px; stroke: rgb(229, 229, 229); paint-order: stroke; fill-rule: nonzero; fill: rgb(255, 20, 30);"/>
  <path class="g" d="m317.7 339.6c-3.4 0-6.1-2.7-6.1-6 0-3.4 2.7-6.1 6.1-6.1 3.3 0 6 2.7 6 6.1 0 3.3-2.7 6-6 6z" style="stroke-width: 2px; stroke: rgb(229, 229, 229); paint-order: stroke; fill-rule: nonzero; fill: rgb(255, 20, 30);"/>
  <path class="g" d="m273 499.7c-3.3 0-6-2.7-6-6.1 0-3.3 2.7-6 6-6 3.4 0 6.1 2.7 6.1 6 0 3.4-2.7 6.1-6.1 6.1z" style="stroke-width: 2px; stroke: rgb(229, 229, 229); paint-order: stroke; fill-rule: nonzero; fill: rgb(255, 20, 30);"/>
  <path style="fill: rgb(216, 216, 216); paint-order: fill; stroke-width: 3px; stroke-dasharray: 4; stroke: rgb(255, 255, 255);" d="M 213.547 541.759 L 174.777 568.757"/>
  <path class="g" d="m214.1 546.8c-3.4 0-6.1-2.7-6.1-6 0-3.4 2.7-6.1 6.1-6.1 3.3 0 6 2.7 6 6.1 0 3.3-2.7 6-6 6z" style="stroke-width: 2px; stroke: rgb(229, 229, 229); paint-order: stroke; fill-rule: nonzero; fill: rgb(255, 20, 30);"/>
  <path class="g" d="m173.6 576.3c-3.3 0-6-2.7-6-6 0-3.4 2.7-6.1 6-6.1 3.4 0 6.1 2.7 6.1 6.1 0 3.3-2.7 6-6.1 6z" style="stroke-width: 2px; stroke: rgb(229, 229, 229); paint-order: stroke; fill-rule: nonzero; fill: rgb(255, 20, 30);"/>
  <path class="g" d="m184.6 629.4c-3.3 0-6-2.7-6-6.1 0-3.3 2.7-6 6-6 3.3 0 6 2.7 6 6 0 3.4-2.7 6.1-6 6.1z" style="stroke-width: 2px; stroke: rgb(229, 229, 229); paint-order: stroke; fill-rule: nonzero; fill: rgb(255, 20, 30);"/>
  <path class="g" d="m198.9 341.3c-3.3 0-6-2.7-6-6 0-3.4 2.7-6.1 6-6.1 3.4 0 6.1 2.7 6.1 6.1 0 3.3-2.7 6-6.1 6z" style="stroke-width: 2px; stroke: rgb(229, 229, 229); paint-order: stroke; fill-rule: nonzero; fill: rgb(255, 20, 30);"/>
  <path class="g" d="m334.4 242.5c-3.4 0-6.1-2.7-6.1-6 0-3.3 2.7-6 6.1-6 3.3 0 6 2.7 6 6 0 3.3-2.7 6-6 6z" style="stroke-width: 2px; stroke: rgb(229, 229, 229); paint-order: stroke; fill-rule: nonzero; fill: rgb(255, 20, 30);"/>
  <path style="fill: rgb(216, 216, 216); paint-order: fill; stroke-width: 3px; stroke-dasharray: 4; stroke: rgb(255, 255, 255); transform-origin: 359.678px 540.205px;" d="M 381.678 534.327 L 337.677 546.083"/>
  <path class="g" d="m385.1 539.2c-3.4 0-6.1-2.7-6.1-6 0-3.3 2.7-6 6.1-6 3.3 0 6 2.7 6 6 0 3.3-2.7 6-6 6z" style="stroke-width: 2px; stroke: rgb(229, 229, 229); paint-order: stroke; fill-rule: nonzero; fill: rgb(255, 20, 30);"/>
  <path class="g" d="m299.2 588.9c-3.4 0-6.1-2.7-6.1-6 0-3.3 2.7-6 6.1-6 3.3 0 6 2.7 6 6 0 3.3-2.7 6-6 6z" style="stroke-width: 2px; stroke: rgb(229, 229, 229); paint-order: stroke; fill-rule: nonzero; fill: rgb(255, 20, 30);"/>
  <path class="g" d="m332 614.2c-3.3 0-6-2.7-6-6 0-3.4 2.7-6.1 6-6.1 3.3 0 6 2.7 6 6.1 0 3.3-2.7 6-6 6z" style="stroke-width: 2px; stroke: rgb(229, 229, 229); paint-order: stroke; fill-rule: nonzero; fill: rgb(255, 20, 30);"/>
  <path class="g" d="m432.7 550.6c-3.4 0-6.1-2.7-6.1-6 0-3.4 2.7-6.1 6.1-6.1 3.3 0 6 2.7 6 6.1 0 3.3-2.7 6-6 6z" style="stroke-width: 2px; stroke: rgb(229, 229, 229); paint-order: stroke; fill-rule: nonzero; fill: rgb(255, 20, 30);"/>
  <path class="g" d="m432.7 550.6c-3.4 0-6.1-2.7-6.1-6 0-3.4 2.7-6.1 6.1-6.1 3.3 0 6 2.7 6 6.1 0 3.3-2.7 6-6 6z" style="stroke-width: 2px; stroke: rgb(229, 229, 229); paint-order: stroke; fill-rule: nonzero; fill: rgb(255, 20, 30);"/>
  <path class="g" d="m423 394c-3.4 0-6.1-2.7-6.1-6.1 0-3.3 2.7-6 6.1-6 3.3 0 6 2.7 6 6 0 3.4-2.7 6.1-6 6.1z" style="stroke-width: 2px; stroke: rgb(229, 229, 229); paint-order: stroke; fill-rule: nonzero; fill: rgb(255, 20, 30);"/>
  <path class="g" d="m483.6 374.2c-3.3 0-6-2.7-6-6.1 0-3.3 2.7-6 6-6 3.4 0 6.1 2.7 6.1 6 0 3.4-2.7 6.1-6.1 6.1z" style="stroke-width: 2px; stroke: rgb(229, 229, 229); paint-order: stroke; fill-rule: nonzero; fill: rgb(255, 20, 30);"/>
  <path class="g" d="m569.9 429.8c-3.3 0-6-2.7-6-6.1 0-3.3 2.7-6 6-6 3.4 0 6.1 2.7 6.1 6 0 3.4-2.7 6.1-6.1 6.1z" style="stroke-width: 2px; stroke: rgb(229, 229, 229); paint-order: stroke; fill-rule: nonzero; fill: rgb(255, 20, 30);"/>
  <path class="g" d="m493.7 607.9c-3.3 0-6-2.7-6-6 0-3.4 2.7-6.1 6-6.1 3.4 0 6.1 2.7 6.1 6.1 0 3.3-2.7 6-6.1 6z" style="stroke-width: 2px; stroke: rgb(229, 229, 229); paint-order: stroke; fill-rule: nonzero; fill: rgb(255, 20, 30);"/>
  <path class="g" d="m684.9 607.5c-3.3 0-6-2.7-6-6.1 0-3.3 2.7-6 6-6 3.4 0 6.1 2.7 6.1 6 0 3.4-2.7 6.1-6.1 6.1z" style="stroke-width: 2px; stroke: rgb(229, 229, 229); paint-order: stroke; fill-rule: nonzero; fill: rgb(255, 20, 30);"/>
  <path class="g" d="m768.7 562.8c-3.3 0-6-2.7-6-6 0-3.4 2.7-6.1 6-6.1 3.4 0 6.1 2.7 6.1 6.1 0 3.3-2.7 6-6.1 6z" style="stroke-width: 2px; stroke: rgb(229, 229, 229); paint-order: stroke; fill-rule: nonzero; fill: rgb(255, 20, 30);"/>
  <path class="g" d="m761.1 596.5c-3.3 0-6-2.7-6-6 0-3.4 2.7-6.1 6-6.1 3.4 0 6.1 2.7 6.1 6.1 0 3.3-2.7 6-6.1 6z" style="stroke-width: 2px; stroke: rgb(229, 229, 229); paint-order: stroke; fill-rule: nonzero; fill: rgb(255, 20, 30);"/>
  <path class="g" d="m800.7 661.4c-3.3 0-6-2.7-6-6.1 0-3.3 2.7-6 6-6 3.4 0 6.1 2.7 6.1 6 0 3.4-2.7 6.1-6.1 6.1z" style="stroke-width: 2px; stroke: rgb(229, 229, 229); paint-order: stroke; fill-rule: nonzero; fill: rgb(255, 20, 30);"/>
  <path class="g" d="m899.3 639.5c-3.4 0-6.1-2.7-6.1-6.1 0-3.3 2.7-6 6.1-6 3.3 0 6 2.7 6 6 0 3.4-2.7 6.1-6 6.1z" style="stroke-width: 2px; stroke: rgb(229, 229, 229); paint-order: stroke; fill-rule: nonzero; fill: rgb(255, 20, 30);"/>
  <path class="g" d="m954.5 494.9c-3.3 0-6-2.7-6-6.1 0-3.3 2.7-6 6-6 3.4 0 6.1 2.7 6.1 6 0 3.4-2.7 6.1-6.1 6.1z" style="stroke-width: 2px; stroke: rgb(229, 229, 229); paint-order: stroke; fill-rule: nonzero; fill: rgb(255, 20, 30);"/>
  <path class="g" d="m1085 559c-3.3 0-6-2.7-6-6 0-3.3 2.7-6 6-6 3.3 0 6.1 2.7 6.1 6 0 3.3-2.8 6-6.1 6z" style="stroke-width: 2px; stroke: rgb(229, 229, 229); paint-order: stroke; fill-rule: nonzero; fill: rgb(255, 20, 30);"/>
  <path class="g" d="m1137.6 581.4c-3.3 0-6-2.7-6-6.1 0-3.3 2.7-6 6-6 3.4 0 6.1 2.7 6.1 6 0 3.4-2.7 6.1-6.1 6.1z" style="stroke-width: 2px; stroke: rgb(229, 229, 229); paint-order: stroke; fill-rule: nonzero; fill: rgb(255, 20, 30);"/>
  <path class="g" d="m1153.7 678.2c-3.4 0-6.1-2.7-6.1-6 0-3.4 2.7-6.1 6.1-6.1 3.3 0 6 2.7 6 6.1 0 3.3-2.7 6-6 6z" style="stroke-width: 2px; stroke: rgb(229, 229, 229); paint-order: stroke; fill-rule: nonzero; fill: rgb(255, 20, 30);"/>
  <path style="fill: rgb(216, 216, 216); paint-order: fill; stroke-width: 3px; stroke-dasharray: 4; stroke: rgb(255, 255, 255);" d="M 326.727 547.485 L 220.4 541.491"/>
  <path class="g" d="m519.7 500.5c-3.4 0-6.1-2.7-6.1-6 0-3.4 2.7-6.1 6.1-6.1 3.3 0 6 2.7 6 6.1 0 3.3-2.7 6-6 6z" style="stroke-width: 2px; stroke: rgb(229, 229, 229); paint-order: stroke; fill-rule: nonzero; fill: rgb(255, 20, 30);"/>
  <path class="g" d="m978.4 539c-3.4 0-6.1-2.7-6.1-6.1 0-3.3 2.7-6 6.1-6 3.3 0 6 2.7 6 6 0 3.4-2.7 6.1-6 6.1z" style="stroke-width: 2px; stroke: rgb(229, 229, 229); paint-order: stroke; fill-rule: nonzero; fill: rgb(255, 20, 30);"/>
  <path class="g" d="m333.3 554.5c-3.4 0-6.1-2.7-6.1-6 0-3.4 2.7-6.1 6.1-6.1 3.3 0 6 2.7 6 6.1 0 3.3-2.7 6-6 6z" style="stroke-width: 2px; stroke: rgb(229, 229, 229); paint-order: stroke; fill-rule: nonzero; fill: rgb(255, 20, 30);"/>
  <path class="g" d="m355.5 499.5c-3.3 0-6-2.7-6-6 0-3.3 2.7-6 6-6 3.3 0 6 2.7 6 6 0 3.3-2.7 6-6 6z" style="stroke-width: 2px; stroke: rgb(229, 229, 229); paint-order: stroke; fill-rule: nonzero; fill: rgb(255, 20, 30);"/>
  <path class="g" d="m84.5 578.5c-3.3 0-6-2.7-6-6 0-3.3 2.7-6 6-6 3.3 0 6 2.7 6 6 0 3.3-2.7 6-6 6z" style="stroke-width: 2px; stroke: rgb(229, 229, 229); paint-order: stroke; fill-rule: nonzero; fill: rgb(255, 20, 30);"/>
  <path class="g" d="m414.8 572.7c-3.4 0-6.1-2.7-6.1-6 0-3.3 2.7-6.1 6.1-6.1 3.3 0 6 2.8 6 6.1 0 3.3-2.7 6-6 6z" style="stroke-width: 2px; stroke: rgb(229, 229, 229); paint-order: stroke; fill-rule: nonzero; fill: rgb(255, 20, 30);"/>
  <text style="fill: rgb(234, 234, 234); font-family: Arial; font-size: 10px; font-weight: 700; letter-spacing: -0.3px; word-spacing: -0.7px; white-space: pre;"><tspan x="123.404" y="486.785">Voronezh</tspan><tspan x="123.404" dy="1em">​</tspan></text>
  <text style="fill: rgb(234, 234, 234); font-family: Arial; font-size: 10px; font-weight: 700; letter-spacing: -0.3px; word-spacing: -0.7px; white-space: pre;" x="120.965" y="583.816">Volgograd
</text>
  <text style="fill: rgb(234, 234, 234); font-family: Arial; font-size: 10px; font-weight: 700; letter-spacing: -0.3px; word-spacing: -0.7px; white-space: pre;"><tspan x="125.218" y="629.166">Astrakhan</tspan><tspan x="125.218" dy="1em">​</tspan></text>
  <text style="fill: rgb(234, 234, 234); font-family: Arial; font-size: 10px; font-weight: 700; letter-spacing: -0.3px; word-spacing: -0.7px; white-space: pre;" x="224.579" y="536.998">Saratov
</text>
  <text style="fill: rgb(234, 234, 234); font-family: Arial; font-size: 10px; font-weight: 700; letter-spacing: -0.3px; word-spacing: -0.7px; white-space: pre;" x="306.582" y="581.641">Orenburg
</text>
  <text style="fill: rgb(234, 234, 234); font-family: Arial; font-size: 10px; font-weight: 700; letter-spacing: -0.3px; word-spacing: -0.7px; white-space: pre;"><tspan x="215.242" y="436.252">Jaroslavl</tspan><tspan x="215.242" dy="1em">​</tspan></text>
  <text style="fill: rgb(234, 234, 234); font-family: Arial; font-size: 10px; font-weight: 700; letter-spacing: -0.3px; word-spacing: -0.7px; white-space: pre;" x="347.772" y="241.695">Murmansk
</text>
  <text style="fill: rgb(234, 234, 234); font-family: Arial; font-size: 10px; font-weight: 700; letter-spacing: -0.3px; word-spacing: -0.7px; white-space: pre;"><tspan x="257.735" y="510.766">Kazan</tspan><tspan x="257.735" dy="1em">​</tspan></text>
  <text style="fill: rgb(234, 234, 234); font-family: Arial; font-size: 10px; font-weight: 700; letter-spacing: -0.3px; word-spacing: -0.7px; white-space: pre;" x="331.54" y="599.534">Orsk
</text>
  <text style="fill: rgb(234, 234, 234); font-family: Arial; font-size: 10px; font-weight: 700; letter-spacing: -0.3px; word-spacing: -0.7px; white-space: pre;" x="391.365" y="527.421">Ekaterinburg
</text>
  <text style="fill: rgb(234, 234, 234); font-family: Arial; font-size: 10px; font-weight: 700; letter-spacing: -0.3px; word-spacing: -0.7px; white-space: pre;" x="529.601" y="504.24">Surgut
</text>
  <text style="fill: rgb(234, 234, 234); font-family: Arial; font-size: 10px; font-weight: 700; letter-spacing: -0.3px; word-spacing: -0.7px; white-space: pre;"><tspan x="574.854" y="440.062">Novy Urengoy</tspan><tspan x="574.854" dy="1em">​</tspan></text>
  <text style="fill: rgb(234, 234, 234); font-family: Arial; font-size: 10px; font-weight: 700; letter-spacing: -0.3px; word-spacing: -0.7px; white-space: pre;" x="488.296" y="383.571">Vorkuta
</text>
  <text style="fill: rgb(234, 234, 234); font-family: Arial; font-size: 10px; font-weight: 700; letter-spacing: -0.3px; word-spacing: -0.7px; white-space: pre;"><tspan x="418.981" y="407.468">Pechora</tspan><tspan x="418.981" dy="1em">​</tspan></text>
  <text style="fill: rgb(234, 234, 234); font-family: Arial; font-size: 10px; font-weight: 700; letter-spacing: -0.3px; word-spacing: -0.7px; white-space: pre;" x="500.041" y="595.818">Omsk
</text>
  <text style="fill: rgb(234, 234, 234); font-family: Arial; font-size: 10px; font-weight: 700; letter-spacing: -0.3px; word-spacing: -0.7px; white-space: pre;"><tspan x="776.406" y="560.496">Ust-Ilimsk</tspan><tspan x="776.406" dy="1em">​</tspan></text>
  <text style="fill: rgb(234, 234, 234); font-family: Arial; font-size: 10px; font-weight: 700; letter-spacing: -0.3px; word-spacing: -0.7px; white-space: pre;"><tspan x="898.238" y="651.386">Chita</tspan><tspan x="898.238" dy="1em">​</tspan></text>
  <text style="fill: rgb(234, 234, 234); font-family: Arial; font-size: 10px; font-weight: 700; letter-spacing: -0.3px; word-spacing: -0.7px; white-space: pre;" x="983.898" y="546.81">Tynda
</text>
  <text style="fill: rgb(234, 234, 234); font-family: Arial; font-size: 10px; font-weight: 700; letter-spacing: -0.3px; word-spacing: -0.7px; white-space: pre;" x="643.805" y="618.131">Krasnojarsk
</text>
  <text style="fill: rgb(234, 234, 234); font-family: Arial; font-size: 10px; white-space: pre;" x="0" y="0">
</text>
  <text style="fill: rgb(234, 234, 234); font-family: Arial; font-size: 10px; white-space: pre;" x="0" y="0">
</text>
  <text style="fill: rgb(234, 234, 234); font-family: Arial; font-size: 10px; font-weight: 700; letter-spacing: -0.3px; word-spacing: -0.7px; white-space: pre;" x="1057.51" y="568.364">Urgal
</text>
  <text style="fill: rgb(234, 234, 234); font-family: Arial; font-size: 10px; font-weight: 700; letter-spacing: -0.3px; word-spacing: -0.7px; white-space: pre;" x="906.862" y="495.16">Tommot
</text>
  <text style="fill: rgb(234, 234, 234); font-family: Arial; font-size: 10px; font-weight: 700; letter-spacing: -0.3px; word-spacing: -0.7px; white-space: pre;" x="333.668" y="564.308">Ufa
</text>
  <text style="fill: rgb(234, 234, 234); font-family: Arial; font-size: 10px; font-weight: 700; letter-spacing: -0.3px; word-spacing: -0.7px; white-space: pre;" x="364.202" y="498.99">Perm
</text>
  <text style="fill: rgb(234, 234, 234); font-family: Arial; font-size: 10px; font-weight: 700; letter-spacing: -0.3px; word-spacing: -0.7px; white-space: pre;" x="75.22" y="594.853">Krasnodar
</text>
  <text style="fill: rgb(234, 234, 234); font-family: Arial; font-size: 10px; font-weight: 700; letter-spacing: -0.3px; word-spacing: -0.7px; white-space: pre;" transform="matrix(1, 0, 0, 1, -0.19530199468135834, -2.849632978439388)"><tspan x="767.275" y="608.117">Bratsk</tspan><tspan x="767.275" dy="1em">​</tspan></text>
  <text style="fill: rgb(234, 234, 234); font-family: Arial; font-size: 10px; font-weight: 700; letter-spacing: -0.3px; word-spacing: -0.7px; white-space: pre;" transform="matrix(1, 0, 0, 1, -24.436460494995117, -18.388713836669922)"><tspan x="1147.21" y="582.456">Khabarovsk</tspan><tspan x="1147.21" dy="1em">​</tspan></text>
  <text style="fill: rgb(234, 234, 234); font-family: Arial; font-size: 10px; font-weight: 700; letter-spacing: -0.3px; word-spacing: -0.7px; white-space: pre;" transform="matrix(1, 0, 0, 1, -15.891938209533691, -10.489822387695312)"><tspan x="1179.98" y="693.102">Vladivostok</tspan><tspan x="1179.98" dy="1em">​</tspan></text>
  <text style="fill: rgb(234, 234, 234); font-family: Arial; font-size: 10px; font-weight: 700; letter-spacing: -0.3px; word-spacing: -0.7px; white-space: pre;" transform="matrix(1, 0, 0, 1, 42.17786407470702, 9.516331672668457)"><tspan x="715.465" y="649.421">Irkutsk</tspan><tspan x="715.465" dy="1em">​</tspan></text>
  <text style="fill: rgb(234, 234, 234); font-family: Arial; font-size: 10px; font-weight: 700; letter-spacing: -0.3px; word-spacing: -0.7px; white-space: pre;" transform="matrix(1, 0, 0, 1, 8.828667640686035, -3.187803030014095)"><tspan x="438.69" y="556.176">Tyumen</tspan><tspan x="438.69" dy="1em">​</tspan></text>
  <text style="fill: rgb(234, 234, 234); font-family: Arial; font-size: 10px; font-weight: 700; letter-spacing: -0.3px; word-spacing: -0.7px; white-space: pre;" transform="matrix(1, 0, 0, 1, 14.161849021911621, -2.2798850536347004)"><tspan x="372.643" y="584.347">Kurgan</tspan><tspan x="372.643" dy="1em">​</tspan></text>
  <text style="fill: rgb(234, 234, 234); font-family: Arial; font-size: 10px; font-weight: 700; letter-spacing: -0.3px; word-spacing: -0.7px; white-space: pre;" transform="matrix(1, 0, 0, 1, 16.366073608398438, -1.1752500534057617)"><tspan x="128.449" y="430.288">Moscow</tspan><tspan x="128.449" dy="1em">​</tspan></text>
  <text style="fill: rgb(234, 234, 234); font-family: Arial; font-size: 10px; font-weight: 700; letter-spacing: -0.3px; word-spacing: -0.7px; white-space: pre;" transform="matrix(1, 0, 0, 1, -21.415109634399414, -25.677284240722656)"><tspan x="140.304" y="342.053">Saint Peterburg</tspan><tspan x="140.304" dy="1em">​</tspan></text>
  <text style="fill: rgb(234, 234, 234); font-family: Arial; font-size: 10px; font-weight: 700; letter-spacing: -0.3px; word-spacing: -0.7px; white-space: pre;" transform="matrix(1, 0, 0, 1, -3.530795097351074, -2.2983789443969727)"><tspan x="330.412" y="347.101">Arkhangelsk</tspan><tspan x="330.412" dy="1em">​</tspan></text>
</svg>